<svg width="32" height="32" viewBox="0 0 32 32" fill="none" xmlns="http://www.w3.org/2000/svg">
<path d="M10.0709 0C4.51271 0 0 4.51271 0 10.0709V21.9291C0 27.4784 4.51271 32 10.0709 32H21.9291C27.4784 32 32 27.4873 32 21.9291V10.0709C32 4.52164 27.4873 0 21.9291 0H10.0709ZM2.80592 23.2337C2.7255 22.8048 2.68082 22.3669 2.68082 21.9201V10.0709C2.68082 5.99609 5.99609 2.68082 10.0709 2.68082H21.9291C24.0112 2.68082 25.8967 3.54761 27.2371 4.94164L23.2784 8.90924C21.0355 7.60458 18.1402 7.92628 16.2279 9.83859L2.80592 23.2337ZM29.3102 21.9201C29.3102 25.995 25.995 29.3102 21.9201 29.3102H10.0709C7.98883 29.3102 6.10332 28.4345 4.75398 27.0405L8.70371 23.0908C10.9645 24.3954 13.8688 24.0648 15.79 22.1525L29.1851 8.73946C29.2656 9.16839 29.3102 9.61519 29.3102 10.0709V21.9291V21.9201Z" fill="white"/>
<path d="M21.9287 31.5L21.9291 32H10.0709L10.0713 31.5H21.9287ZM31.5 21.9287V10.0713C31.5 4.79785 27.2105 0.5 21.9287 0.5H10.0713C4.78921 0.5 0.5 4.78921 0.5 10.0713V21.9287C0.5 27.2021 4.7895 31.5 10.0713 31.5L10.0709 32L9.55273 31.9873C4.23491 31.7167 0 27.3049 0 21.9291V10.0709C0 4.68649 4.23491 0.282776 9.55273 0.0126953L10.0709 0H21.9291C27.4873 0 32 4.52164 32 10.0709V21.9291C32 27.4873 27.4784 32 21.9291 32L21.9287 31.5C27.2021 31.5 31.5 27.2105 31.5 21.9287ZM29.3102 10.0709C29.3102 9.61519 29.2656 9.16839 29.1851 8.73946L15.79 22.1525L15.6074 22.3271C13.6883 24.084 10.8939 24.3545 8.70371 23.0908L4.75398 27.0405C6.01892 28.3473 7.75506 29.1984 9.68262 29.2998L10.0709 29.3102H21.9201L22.2998 29.3008C26.1989 29.1025 29.3102 25.8677 29.3102 21.9201V10.0709ZM21.9287 2.18066C24.1522 2.18066 26.1668 3.10674 27.5977 4.59473L27.9365 4.94824L23.6328 9.2627L23.3604 9.53516L23.0273 9.3418C21.0416 8.18674 18.4957 8.42575 16.748 10.0322L16.5811 10.1924L2.48926 24.2568L2.31445 23.3262C2.22883 22.8695 2.18066 22.4002 2.18066 21.9199V10.0713C2.18066 5.72031 5.72031 2.18066 10.0713 2.18066L10.0709 2.68082L9.69141 2.69043C5.79222 2.88865 2.68082 6.12337 2.68082 10.0709V21.9201C2.68082 22.3669 2.7255 22.8048 2.80592 23.2337L16.2279 9.83859C18.1402 7.92628 21.0355 7.60458 23.2784 8.90924L27.2371 4.94164C25.8967 3.54761 24.0112 2.68082 21.9291 2.68082L21.9287 2.18066ZM21.9287 2.18066L21.9291 2.68082H10.0709L10.0713 2.18066H21.9287ZM29.8105 21.9287C29.8059 26.2758 26.268 29.8105 21.9199 29.8105H10.0713C7.84602 29.8105 5.83249 28.8742 4.39453 27.3887L4.05273 27.0352L4.40039 26.6865L8.35059 22.7373L8.62109 22.4658L8.9541 22.6572C11.0219 23.8504 13.6784 23.5487 15.4375 21.7979L29.502 7.71484L29.6768 8.64746C29.7625 9.10504 29.8105 9.58304 29.8105 10.0713V21.9287Z" fill="black"/>
</svg>
